<svg xmlns="http://www.w3.org/2000/svg" xmlns:xlink="http://www.w3.org/1999/xlink" width="36" height="36" viewBox="0 0 36 36"><defs><path id="woaaa" d="M536.7 1340.25a1 1 0 0 1 0 1.45 1.09 1.09 0 0 1-1.5 0l-3.5-3.36a16.33 16.33 0 0 1-17.3.05l-3.45 3.31a1.09 1.09 0 0 1-1.5 0 1 1 0 0 1 0-1.45l3.2-3.1a15.17 15.17 0 0 1-5.65-11.74c0-2.29.53-4.46 1.47-6.41l-.06-.06a4.53 4.53 0 0 1 0-6.56 4.88 4.88 0 0 1 6.5-.25 16.34 16.34 0 0 1 16.18 0 4.88 4.88 0 0 1 6.5.25 4.53 4.53 0 0 1 0 6.56l-.06.06a14.85 14.85 0 0 1 1.47 6.41c0 4.67-2.17 8.85-5.58 11.68zm-3.72-26.87a15.7 15.7 0 0 1 3.45 3.69c.68-1 .56-2.36-.35-3.24a2.83 2.83 0 0 0-3.1-.45zm-23.41 3.69c.94-1.4 2.1-2.65 3.45-3.7-1-.47-2.3-.32-3.1.46a2.52 2.52 0 0 0-.35 3.24zm27.3 8.34c0-7.37-6.22-13.36-13.87-13.36-7.65 0-13.87 6-13.87 13.36 0 7.37 6.22 13.37 13.87 13.37 7.65 0 13.87-6 13.87-13.37zm-7.47 0c0 .57-.48 1.03-1.07 1.03H523c-.59 0-1.07-.46-1.07-1.03v-8.22c0-.57.48-1.03 1.07-1.03.59 0 1.07.46 1.07 1.03v7.2h4.26c.6 0 1.07.45 1.07 1.02z"/></defs><g><g transform="translate(-505 -1308)"><use fill="#925ebf" xlink:href="#woaaa"/></g></g></svg>