<svg xmlns="http://www.w3.org/2000/svg" xmlns:xlink="http://www.w3.org/1999/xlink" width="36" height="35" viewBox="0 0 36 35"><defs><path id="9lwia" d="M1351.86 1325.75c-.15.33-.65 1.25-2.08 1.25H1348v9.72c0 2.2-1.59 4.28-3.84 4.28h-5.17v-10.29c0-1.1.16-1.71-.96-1.71h-4.09c-1.13 0-.96.61-.96 1.71V1341h-5.17c-2.25 0-3.84-2.08-3.84-4.28V1327h-1.78c-1.43 0-1.93-.92-2.08-1.25-.2-.48-.37-1.6.89-2.9l12.14-12.64a3.92 3.92 0 0 1 5.69 0l12.14 12.63c1.26 1.3 1.1 2.43.89 2.9zm-1.99-.9c-.07-.11-.19-.42-.38-.62l-12.15-12.63c-.36-.38-.84-.6-1.34-.6-.5 0-1 .22-1.37.6l-12.15 12.63c-.2.2-.31.5-.38.63.03 0 .06.14.1.14h3.77v11.72c0 1.1.72 2.28 1.84 2.28h3.17v-8.29c0-2.2.7-3.71 2.96-3.71h4.09c2.25 0 2.96 1.5 2.96 3.71v8.29h3.17c1.12 0 1.83-1.18 1.83-2.28V1325h3.79c.03 0 .06-.14.1-.14z"/></defs><g><g transform="translate(-1318 -1307)"><use fill="#925ebf" xlink:href="#9lwia"/></g></g></svg>