<svg xmlns="http://www.w3.org/2000/svg" xmlns:xlink="http://www.w3.org/1999/xlink" width="35" height="35" viewBox="0 0 35 35"><defs><path id="smnxa" d="M944 1329a3 3 0 1 1 6 0 3 3 0 0 1-6 0zm2 1h2v-2h-2zm8-13v20a4 4 0 0 1-4 4h-24a4 4 0 0 1-4-4v-21c0-.18.03-.34.05-.51-.02-.16-.05-.32-.05-.5v-2c0-.93.34-1.79.89-2.47l.16-.97.11.64a3.99 3.99 0 0 1 2.84-1.2h19v8zm-29.97-1.71v.04c.05.23.12.44.23.64l.03.04c.04.08.1.15.15.22l.07.1a1.99 1.99 0 0 0 .6.45l.16.07.22.07.13.04c.12.02.25.04.38.04h17v-6h-17a2 2 0 0 0-2 2v2c0 .1.02.2.03.29zm27.97 21.7v-2h-8a4 4 0 0 1-4-4v-4a4 4 0 0 1 4-4h8v-4h-26a3.98 3.98 0 0 1-1.55-.3l-.02-.01-.43-.22V1337c0 1.1.9 2 2 2h24a2 2 0 0 0 2-2zm-8-12a2 2 0 0 0-2 2v4c0 1.11.9 2 2 2h8v-8z"/></defs><g><g transform="translate(-920 -1307)"><use fill="#925ebf" xlink:href="#smnxa"/></g></g></svg>