<svg xmlns="http://www.w3.org/2000/svg" xmlns:xlink="http://www.w3.org/1999/xlink" width="74" height="74" viewBox="0 0 74 74"><defs><path id="s5xca" d="M855 2065v-74h74v74zm1-37a36 36 0 1 0 72 0 36 36 0 0 0-72 0z"/><path id="s5xcb" d="M892 1992a36 36 0 1 1 0 72 36 36 0 0 1 0-72z"/><path id="s5xcd" d="M908 2016a3 3 0 0 1-3 3l-.17-.02-5.82 13.81a2.98 2.98 0 0 1-2.01 5.2 3 3 0 0 1-2.88-3.79l-5.38-3.77a2.98 2.98 0 0 1-2.27.51l-5.2 9.11A2.98 2.98 0 0 1 879 2045a3 3 0 1 1 .53-5.95l5.2-9.1A2.97 2.97 0 0 1 887 2025a3 3 0 0 1 2.88 3.8l5.38 3.76c.5-.35 1.1-.56 1.74-.56l.17.02 5.82-13.81A2.99 2.99 0 0 1 905 2013a3 3 0 0 1 3 3zm-22 13h2v-2h-2zm-8 12v2h2v-2zm18-5h2v-2h-2zm10-19v-2h-2v2z"/><clipPath id="s5xcc"><use fill="#fff" xlink:href="#s5xca"/></clipPath></defs><g><g transform="translate(-855 -1991)"><use fill="#999" xlink:href="#s5xcb"/><use fill="#fff" fill-opacity="0" stroke="#e1e1e1" stroke-linecap="round" stroke-linejoin="round" stroke-miterlimit="50" stroke-width="2" clip-path="url(&quot;#s5xcc&quot;)" xlink:href="#s5xcb"/></g><g transform="translate(-855 -1991)"><use fill="#925ebf" xlink:href="#s5xcd"/></g></g></svg>